<?xml version="1.0" encoding="UTF-8"?>
<svg id="Layer_2" data-name="Layer 2" xmlns="http://www.w3.org/2000/svg" viewBox="0 0 1219.18 368.42">
  <g id="Layer_1-2" data-name="Layer 1">
    <g>
      <g>
        <g>
          <path d="M206.52,153.58c0,21.16-3.71,38.83-11.14,52.99-7.42,14.17-17.79,24.75-31.1,31.74-13.31,7-28.67,10.5-46.08,10.5h-59.39V66.03h62.46c28.16,0,49.41,7.51,63.74,22.53,14.34,15.02,21.5,36.7,21.5,65.02ZM152.51,155.37c0-32.94-10.5-49.41-31.49-49.41h-9.98v102.4h7.17c11.94,0,20.65-4.35,26.11-13.06,5.46-8.7,8.19-22.02,8.19-39.94Z"/>
          <path d="M295.35,104.68c19.97,0,35.75,5.38,47.36,16.13,11.6,10.75,17.41,26.97,17.41,48.64v21.76h-80.38c.34,7.34,2.64,13.4,6.91,18.18,4.26,4.78,10.92,7.17,19.97,7.17,8.36,0,16-.85,22.91-2.56,6.91-1.7,14.04-4.44,21.38-8.19v35.07c-6.32,3.58-13.44,6.23-21.38,7.94s-18.14,2.56-30.59,2.56c-13.48,0-25.6-2.52-36.35-7.55s-19.29-12.88-25.6-23.55c-6.32-10.66-9.47-24.45-9.47-41.34s2.86-30.85,8.58-41.86c5.72-11.01,13.65-19.16,23.81-24.45,10.15-5.29,21.97-7.94,35.46-7.94ZM297.66,137.96c-4.44,0-8.24,1.79-11.39,5.38-3.16,3.58-4.99,9.3-5.5,17.15h33.28c-.17-6.31-1.66-11.65-4.48-16-2.82-4.35-6.78-6.53-11.9-6.53Z"/>
          <path d="M414.13,248.81l-48.9-141.57h53.76l16.64,73.22c1.19,5.98,2.13,10.92,2.82,14.85.68,3.93,1.19,7.26,1.54,9.98h.77c.34-2.73.85-5.93,1.54-9.6.68-3.67,1.79-8.49,3.33-14.46l18.43-73.98h54.02l-51.2,141.57h-52.74Z"/>
          <path d="M682.67,153.58c0,21.16-3.71,38.83-11.14,52.99-7.42,14.17-17.79,24.75-31.1,31.74-13.31,7-28.67,10.5-46.08,10.5h-59.39V66.03h62.46c28.16,0,49.41,7.51,63.74,22.53,14.34,15.02,21.5,36.7,21.5,65.02ZM628.66,155.37c0-32.94-10.5-49.41-31.49-49.41h-9.98v102.4h7.17c11.94,0,20.65-4.35,26.11-13.06,5.46-8.7,8.19-22.02,8.19-39.94Z"/>
          <path d="M779.44,104.68c16.55,0,29.57,4.44,39.04,13.31,9.47,8.88,14.21,21.5,14.21,37.89v92.93h-35.58l-9.98-18.69h-1.02c-5.63,7.51-11.61,12.93-17.92,16.26-6.32,3.33-15.02,4.99-26.11,4.99s-20.99-3.75-28.67-11.26c-7.68-7.51-11.52-19.03-11.52-34.56s4.95-26.5,14.85-33.92c9.9-7.42,23.98-11.48,42.24-12.16l21.76-.77v-2.05c0-6.31-1.24-10.79-3.71-13.44-2.48-2.64-5.76-3.97-9.86-3.97-4.78,0-10.5.98-17.15,2.94-6.66,1.96-13.31,4.48-19.97,7.55l-14.08-32.26c8.19-4.26,17.41-7.46,27.65-9.6,10.24-2.13,22.18-3.2,35.84-3.2ZM781.23,185.58l-8.7.51c-6.66.34-11.39,1.92-14.21,4.74-2.82,2.82-4.22,6.78-4.22,11.9,0,4.78.98,8.32,2.94,10.62,1.96,2.3,4.65,3.46,8.06,3.46,4.26,0,8.02-1.88,11.26-5.63,3.24-3.75,4.86-8.62,4.86-14.59v-11.01Z"/>
          <path d="M887.22,50.16c7.34,0,13.7,1.45,19.07,4.35,5.38,2.9,8.06,8.7,8.06,17.41s-2.69,14.04-8.06,17.02c-5.38,2.99-11.74,4.48-19.07,4.48s-13.91-1.49-19.2-4.48c-5.29-2.98-7.94-8.66-7.94-17.02s2.64-14.5,7.94-17.41c5.29-2.9,11.69-4.35,19.2-4.35ZM912.82,107.24v141.57h-51.71V107.24h51.71Z"/>
          <path d="M993.45,248.81h-51.71V54.25h51.71v194.56Z"/>
          <path d="M1007.53,107.24h53.5l20.74,81.15c.51,1.71.9,4.01,1.15,6.91.26,2.9.38,5.72.38,8.45h1.28c.34-3.07.6-5.97.77-8.7.17-2.73.51-4.95,1.02-6.66l22.02-81.15h51.97l-51.97,150.27c-3.93,11.6-8.54,21.33-13.82,29.18-5.29,7.85-12.16,13.74-20.61,17.66-8.45,3.92-19.42,5.89-32.9,5.89-4.27,0-7.9-.22-10.88-.64-2.99-.43-5.68-.9-8.06-1.41v-38.4c1.7.34,3.8.68,6.27,1.02,2.47.34,5.08.51,7.81.51,7.68,0,13.06-2.09,16.13-6.27,3.07-4.18,5.38-9.26,6.91-15.23l.77-3.07-52.48-139.52Z"/>
        </g>
        <g>
          <path d="M112.9,308.67h-5l-9.36-13.16-2.8,2.32v10.84h-4.32v-28.56h4.32v13.8c.67-.8,1.36-1.6,2.08-2.4.72-.8,1.41-1.61,2.08-2.44l7.72-8.96h4.96l-10.92,12.48,11.24,16.08Z"/>
          <path d="M124.7,286.71c2.83,0,5.05.87,6.68,2.62,1.63,1.75,2.44,4.13,2.44,7.14v2.32h-14.48c.05,2.21.63,3.91,1.74,5.08,1.11,1.17,2.66,1.76,4.66,1.76,1.39,0,2.62-.13,3.7-.38,1.08-.25,2.19-.63,3.34-1.14v3.52c-1.09.51-2.19.87-3.28,1.1-1.09.23-2.4.34-3.92.34-2.08,0-3.92-.41-5.52-1.24-1.6-.83-2.85-2.05-3.74-3.68-.89-1.63-1.34-3.65-1.34-6.08s.41-4.48,1.22-6.16c.81-1.68,1.95-2.97,3.4-3.86,1.45-.89,3.15-1.34,5.1-1.34ZM124.7,289.99c-1.52,0-2.74.49-3.66,1.48-.92.99-1.46,2.39-1.62,4.2h10.16c-.03-1.68-.43-3.05-1.22-4.1-.79-1.05-2.01-1.58-3.66-1.58Z"/>
          <path d="M150.02,286.71c2.51,0,4.43.63,5.76,1.88,1.33,1.25,2,3.27,2,6.04v14.04h-4.2v-13.44c0-3.36-1.48-5.04-4.44-5.04-2.19,0-3.7.65-4.54,1.96-.84,1.31-1.26,3.19-1.26,5.64v10.88h-4.24v-21.56h3.36l.6,2.88h.24c.69-1.12,1.65-1.95,2.86-2.48,1.21-.53,2.5-.8,3.86-.8Z"/>
          <path d="M172.06,305.63c1.2,0,2.28-.17,3.24-.52v3.2c-.45.21-1.07.39-1.84.54-.77.15-1.55.22-2.32.22-1.17,0-2.25-.2-3.22-.6-.97-.4-1.75-1.09-2.34-2.08-.59-.99-.88-2.36-.88-4.12v-11.92h-3v-1.92l3.16-1.6,1.48-4.56h2.6v4.84h6.16v3.24h-6.16v11.84c0,1.17.29,2.04.86,2.6.57.56,1.33.84,2.26.84Z"/>
          <path d="M198.17,287.11v21.56h-3.4l-.6-2.84h-.2c-.69,1.12-1.65,1.94-2.88,2.46-1.23.52-2.52.78-3.88.78-2.53,0-4.47-.62-5.8-1.86-1.33-1.24-2-3.23-2-5.98v-14.12h4.28v13.48c0,1.68.35,2.93,1.06,3.76.71.83,1.81,1.24,3.3,1.24,2.21,0,3.75-.65,4.6-1.94.85-1.29,1.28-3.17,1.28-5.62v-10.92h4.24Z"/>
          <path d="M213.49,309.07c-2.99,0-5.39-.89-7.2-2.66s-2.72-4.57-2.72-8.38c0-2.67.44-4.83,1.32-6.48.88-1.65,2.09-2.87,3.64-3.66,1.55-.79,3.31-1.18,5.28-1.18,1.2,0,2.33.12,3.38.36,1.05.24,1.93.53,2.62.88l-1.28,3.44c-.75-.27-1.53-.51-2.36-.74-.83-.23-1.63-.34-2.4-.34-3.89,0-5.84,2.56-5.84,7.68,0,2.45.48,4.32,1.44,5.6s2.37,1.92,4.24,1.92c1.17,0,2.23-.13,3.16-.4.93-.27,1.79-.61,2.56-1.04v3.68c-.77.45-1.61.79-2.52,1-.91.21-2.01.32-3.32.32Z"/>
          <path d="M228.61,278.27v15.2c0,.53-.03,1.17-.08,1.92-.05.75-.09,1.41-.12,2h.12c.29-.4.7-.93,1.22-1.58.52-.65.98-1.19,1.38-1.62l6.6-7.08h4.92l-8.68,9.24,9.24,12.32h-5l-7.12-9.64-2.48,2.08v7.56h-4.2v-30.4h4.2Z"/>
          <path d="M243.49,287.11h4.56l4.48,12.24c.35.93.65,1.83.92,2.68.27.85.45,1.71.56,2.56h.16c.13-.69.34-1.51.62-2.44.28-.93.59-1.88.94-2.84l4.24-12.2h4.56l-9.24,24.48c-.77,2.08-1.81,3.71-3.1,4.9-1.29,1.19-2.98,1.78-5.06,1.78-.67,0-1.24-.03-1.72-.1s-.89-.14-1.24-.22v-3.36c.27.05.61.11,1.04.16.43.05.87.08,1.32.08,1.23,0,2.21-.35,2.96-1.06.75-.71,1.33-1.63,1.76-2.78l.88-2.32-8.64-21.56Z"/>
          <path d="M272.85,280.11l.28.44c-.35,1.41-.84,2.97-1.48,4.66s-1.29,3.26-1.96,4.7h-3.08c.37-1.52.75-3.19,1.12-5,.37-1.81.67-3.41.88-4.8h4.24Z"/>
          <path d="M290.05,302.59c0,2.13-.77,3.75-2.3,4.84-1.53,1.09-3.69,1.64-6.46,1.64-1.52,0-2.82-.11-3.9-.32s-2.07-.55-2.98-1v-3.72c.93.45,2.03.86,3.3,1.22s2.5.54,3.7.54c1.6,0,2.75-.25,3.46-.76.71-.51,1.06-1.19,1.06-2.04,0-.48-.13-.91-.4-1.3-.27-.39-.77-.79-1.5-1.2-.73-.41-1.81-.89-3.22-1.42-1.39-.53-2.55-1.08-3.5-1.64-.95-.56-1.67-1.23-2.18-2-.51-.77-.76-1.75-.76-2.92,0-1.87.75-3.3,2.26-4.3,1.51-1,3.5-1.5,5.98-1.5,1.31,0,2.54.13,3.7.4,1.16.27,2.29.64,3.38,1.12l-1.4,3.24c-.93-.4-1.89-.74-2.88-1.02-.99-.28-1.99-.42-3-.42-2.61,0-3.92.76-3.92,2.28,0,.51.15.95.46,1.32.31.37.84.75,1.6,1.12.76.37,1.82.83,3.18,1.36,1.31.51,2.43,1.03,3.38,1.58.95.55,1.67,1.21,2.18,1.98.51.77.76,1.75.76,2.92Z"/>
          <path d="M310.25,308.67h-4.28v-28.56h16.08v3.68h-11.8v9.32h11.04v3.68h-11.04v11.88Z"/>
          <path d="M328.77,278.91c.64,0,1.2.19,1.68.56.48.37.72,1,.72,1.88s-.24,1.47-.72,1.86-1.04.58-1.68.58-1.24-.19-1.72-.58c-.48-.39-.72-1.01-.72-1.86s.24-1.51.72-1.88c.48-.37,1.05-.56,1.72-.56ZM330.85,287.11v21.56h-4.24v-21.56h4.24Z"/>
          <path d="M348.41,286.71c2.51,0,4.43.63,5.76,1.88,1.33,1.25,2,3.27,2,6.04v14.04h-4.2v-13.44c0-3.36-1.48-5.04-4.44-5.04-2.19,0-3.7.65-4.54,1.96-.84,1.31-1.26,3.19-1.26,5.64v10.88h-4.24v-21.56h3.36l.6,2.88h.24c.69-1.12,1.65-1.95,2.86-2.48,1.21-.53,2.5-.8,3.86-.8Z"/>
          <path d="M371.17,286.71c2.83,0,5.05.87,6.68,2.62,1.63,1.75,2.44,4.13,2.44,7.14v2.32h-14.48c.05,2.21.63,3.91,1.74,5.08,1.11,1.17,2.66,1.76,4.66,1.76,1.39,0,2.62-.13,3.7-.38,1.08-.25,2.19-.63,3.34-1.14v3.52c-1.09.51-2.19.87-3.28,1.1-1.09.23-2.4.34-3.92.34-2.08,0-3.92-.41-5.52-1.24-1.6-.83-2.85-2.05-3.74-3.68-.89-1.63-1.34-3.65-1.34-6.08s.41-4.48,1.22-6.16c.81-1.68,1.95-2.97,3.4-3.86,1.45-.89,3.15-1.34,5.1-1.34ZM371.17,289.99c-1.52,0-2.74.49-3.66,1.48-.92.99-1.46,2.39-1.62,4.2h10.16c-.03-1.68-.43-3.05-1.22-4.1-.79-1.05-2.01-1.58-3.66-1.58Z"/>
          <path d="M399.89,302.59c0,2.13-.77,3.75-2.3,4.84-1.53,1.09-3.69,1.64-6.46,1.64-1.52,0-2.82-.11-3.9-.32s-2.07-.55-2.98-1v-3.72c.93.45,2.03.86,3.3,1.22s2.5.54,3.7.54c1.6,0,2.75-.25,3.46-.76.71-.51,1.06-1.19,1.06-2.04,0-.48-.13-.91-.4-1.3-.27-.39-.77-.79-1.5-1.2-.73-.41-1.81-.89-3.22-1.42-1.39-.53-2.55-1.08-3.5-1.64-.95-.56-1.67-1.23-2.18-2-.51-.77-.76-1.75-.76-2.92,0-1.87.75-3.3,2.26-4.3,1.51-1,3.5-1.5,5.98-1.5,1.31,0,2.54.13,3.7.4,1.16.27,2.29.64,3.38,1.12l-1.4,3.24c-.93-.4-1.89-.74-2.88-1.02-.99-.28-1.99-.42-3-.42-2.61,0-3.92.76-3.92,2.28,0,.51.15.95.46,1.32.31.37.84.75,1.6,1.12.76.37,1.82.83,3.18,1.36,1.31.51,2.43,1.03,3.38,1.58.95.55,1.67,1.21,2.18,1.98.51.77.76,1.75.76,2.92Z"/>
          <path d="M412.69,305.63c1.2,0,2.28-.17,3.24-.52v3.2c-.45.21-1.07.39-1.84.54-.77.15-1.55.22-2.32.22-1.17,0-2.25-.2-3.22-.6-.97-.4-1.75-1.09-2.34-2.08-.59-.99-.88-2.36-.88-4.12v-11.92h-3v-1.92l3.16-1.6,1.48-4.56h2.6v4.84h6.16v3.24h-6.16v11.84c0,1.17.29,2.04.86,2.6.57.56,1.33.84,2.26.84Z"/>
          <path d="M447.53,300.95c0,2.53-.92,4.52-2.76,5.96-1.84,1.44-4.36,2.16-7.56,2.16-1.57,0-3.04-.13-4.4-.38-1.36-.25-2.52-.62-3.48-1.1v-4.08c1.07.48,2.32.91,3.76,1.3,1.44.39,2.91.58,4.4.58,1.92,0,3.36-.37,4.32-1.12.96-.75,1.44-1.75,1.44-3,0-.88-.21-1.62-.64-2.22-.43-.6-1.11-1.16-2.06-1.68-.95-.52-2.18-1.07-3.7-1.66-1.39-.53-2.63-1.16-3.72-1.88-1.09-.72-1.95-1.61-2.56-2.68-.61-1.07-.92-2.37-.92-3.92,0-2.35.85-4.19,2.56-5.52,1.71-1.33,3.95-2,6.72-2,1.55,0,2.98.16,4.3.48,1.32.32,2.58.73,3.78,1.24l-1.36,3.56c-1.09-.45-2.21-.83-3.34-1.12-1.13-.29-2.3-.44-3.5-.44-1.57,0-2.77.35-3.6,1.04-.83.69-1.24,1.6-1.24,2.72,0,.88.2,1.62.6,2.22.4.6,1.04,1.15,1.92,1.64.88.49,2.04,1.02,3.48,1.58,1.6.64,2.97,1.31,4.1,2.02,1.13.71,1.99,1.56,2.58,2.56.59,1,.88,2.25.88,3.74Z"/>
          <path d="M471.65,297.87c0,3.57-.92,6.33-2.76,8.28s-4.32,2.92-7.44,2.92c-1.95,0-3.67-.43-5.18-1.3-1.51-.87-2.69-2.13-3.56-3.8-.87-1.67-1.3-3.7-1.3-6.1,0-3.57.91-6.33,2.72-8.26s4.29-2.9,7.44-2.9c1.97,0,3.71.43,5.22,1.3,1.51.87,2.69,2.13,3.56,3.78.87,1.65,1.3,3.68,1.3,6.08ZM455.77,297.87c0,2.43.46,4.32,1.38,5.68.92,1.36,2.38,2.04,4.38,2.04s3.46-.68,4.38-2.04,1.38-3.25,1.38-5.68-.46-4.34-1.38-5.66-2.39-1.98-4.42-1.98-3.45.66-4.36,1.98c-.91,1.32-1.36,3.21-1.36,5.66Z"/>
          <path d="M495.57,287.11v21.56h-3.4l-.6-2.84h-.2c-.69,1.12-1.65,1.94-2.88,2.46-1.23.52-2.52.78-3.88.78-2.53,0-4.47-.62-5.8-1.86-1.33-1.24-2-3.23-2-5.98v-14.12h4.28v13.48c0,1.68.35,2.93,1.06,3.76.71.83,1.81,1.24,3.3,1.24,2.21,0,3.75-.65,4.6-1.94.85-1.29,1.28-3.17,1.28-5.62v-10.92h4.24Z"/>
          <path d="M512.85,286.71c.85,0,1.64.07,2.36.2l-.44,3.96c-.69-.19-1.41-.28-2.16-.28-1.09,0-2.11.27-3.04.8-.93.53-1.69,1.3-2.26,2.3s-.86,2.21-.86,3.62v11.36h-4.24v-21.56h3.36l.56,3.84h.16c.67-1.15,1.56-2.14,2.68-2.98s2.41-1.26,3.88-1.26Z"/>
          <path d="M527.09,309.07c-2.99,0-5.39-.89-7.2-2.66s-2.72-4.57-2.72-8.38c0-2.67.44-4.83,1.32-6.48.88-1.65,2.09-2.87,3.64-3.66,1.55-.79,3.31-1.18,5.28-1.18,1.2,0,2.33.12,3.38.36,1.05.24,1.93.53,2.62.88l-1.28,3.44c-.75-.27-1.53-.51-2.36-.74-.83-.23-1.63-.34-2.4-.34-3.89,0-5.84,2.56-5.84,7.68,0,2.45.48,4.32,1.44,5.6s2.37,1.92,4.24,1.92c1.17,0,2.23-.13,3.16-.4s1.79-.61,2.56-1.04v3.68c-.77.45-1.61.79-2.52,1s-2.01.32-3.32.32Z"/>
          <path d="M546.49,286.71c2.83,0,5.05.87,6.68,2.62,1.63,1.75,2.44,4.13,2.44,7.14v2.32h-14.48c.05,2.21.63,3.91,1.74,5.08,1.11,1.17,2.66,1.76,4.66,1.76,1.39,0,2.62-.13,3.7-.38,1.08-.25,2.19-.63,3.34-1.14v3.52c-1.09.51-2.19.87-3.28,1.1-1.09.23-2.4.34-3.92.34-2.08,0-3.92-.41-5.52-1.24-1.6-.83-2.85-2.05-3.74-3.68-.89-1.63-1.34-3.65-1.34-6.08s.41-4.48,1.22-6.16c.81-1.68,1.95-2.97,3.4-3.86,1.45-.89,3.15-1.34,5.1-1.34ZM546.49,289.99c-1.52,0-2.74.49-3.66,1.48-.92.99-1.46,2.39-1.62,4.2h10.16c-.03-1.68-.43-3.05-1.22-4.1-.79-1.05-2.01-1.58-3.66-1.58Z"/>
          <path d="M581.81,290.35h-5.32v18.32h-4.24v-18.32h-3.64v-2l3.64-1.32v-1.36c0-2.75.63-4.7,1.9-5.86,1.27-1.16,3.03-1.74,5.3-1.74.93,0,1.79.08,2.56.24.77.16,1.43.33,1.96.52l-1.08,3.24c-.45-.13-.96-.26-1.52-.38-.56-.12-1.13-.18-1.72-.18-2.11,0-3.16,1.4-3.16,4.2v1.4h5.32v3.24Z"/>
          <path d="M604.57,297.87c0,3.57-.92,6.33-2.76,8.28s-4.32,2.92-7.44,2.92c-1.95,0-3.67-.43-5.18-1.3-1.51-.87-2.69-2.13-3.56-3.8-.87-1.67-1.3-3.7-1.3-6.1,0-3.57.91-6.33,2.72-8.26s4.29-2.9,7.44-2.9c1.97,0,3.71.43,5.22,1.3,1.51.87,2.69,2.13,3.56,3.78.87,1.65,1.3,3.68,1.3,6.08ZM588.69,297.87c0,2.43.46,4.32,1.38,5.68s2.38,2.04,4.38,2.04,3.46-.68,4.38-2.04,1.38-3.25,1.38-5.68-.46-4.34-1.38-5.66-2.39-1.98-4.42-1.98-3.45.66-4.36,1.98-1.36,3.21-1.36,5.66Z"/>
          <path d="M620.57,286.71c.85,0,1.64.07,2.36.2l-.44,3.96c-.69-.19-1.41-.28-2.16-.28-1.09,0-2.11.27-3.04.8-.93.53-1.69,1.3-2.26,2.3-.57,1-.86,2.21-.86,3.62v11.36h-4.24v-21.56h3.36l.56,3.84h.16c.67-1.15,1.56-2.14,2.68-2.98s2.41-1.26,3.88-1.26Z"/>
          <path d="M647.41,308.67h-4.32v-24.84h-8.56v-3.72h21.44v3.72h-8.56v24.84Z"/>
          <path d="M665.53,286.71c2.83,0,5.05.87,6.68,2.62,1.63,1.75,2.44,4.13,2.44,7.14v2.32h-14.48c.05,2.21.63,3.91,1.74,5.08,1.11,1.17,2.66,1.76,4.66,1.76,1.39,0,2.62-.13,3.7-.38,1.08-.25,2.19-.63,3.34-1.14v3.52c-1.09.51-2.19.87-3.28,1.1-1.09.23-2.4.34-3.92.34-2.08,0-3.92-.41-5.52-1.24-1.6-.83-2.85-2.05-3.74-3.68-.89-1.63-1.34-3.65-1.34-6.08s.41-4.48,1.22-6.16c.81-1.68,1.95-2.97,3.4-3.86,1.45-.89,3.15-1.34,5.1-1.34ZM665.53,289.99c-1.52,0-2.74.49-3.66,1.48-.92.99-1.46,2.39-1.62,4.2h10.16c-.03-1.68-.43-3.05-1.22-4.1-.79-1.05-2.01-1.58-3.66-1.58Z"/>
          <path d="M688.61,309.07c-2.99,0-5.39-.89-7.2-2.66s-2.72-4.57-2.72-8.38c0-2.67.44-4.83,1.32-6.48.88-1.65,2.09-2.87,3.64-3.66,1.55-.79,3.31-1.18,5.28-1.18,1.2,0,2.33.12,3.38.36,1.05.24,1.93.53,2.62.88l-1.28,3.44c-.75-.27-1.53-.51-2.36-.74-.83-.23-1.63-.34-2.4-.34-3.89,0-5.84,2.56-5.84,7.68,0,2.45.48,4.32,1.44,5.6s2.37,1.92,4.24,1.92c1.17,0,2.23-.13,3.16-.4s1.79-.61,2.56-1.04v3.68c-.77.45-1.61.79-2.52,1s-2.01.32-3.32.32Z"/>
          <path d="M703.77,278.27v8.12c0,.67-.03,1.33-.08,2-.05.67-.11,1.21-.16,1.64h.28c.69-1.09,1.62-1.91,2.78-2.46s2.42-.82,3.78-.82c2.53,0,4.47.63,5.82,1.88,1.35,1.25,2.02,3.25,2.02,6v14.04h-4.2v-13.44c0-3.36-1.48-5.04-4.44-5.04-2.21,0-3.73.67-4.56,2-.83,1.33-1.24,3.21-1.24,5.64v10.84h-4.24v-30.4h4.24Z"/>
          <path d="M735.65,286.71c2.51,0,4.43.63,5.76,1.88,1.33,1.25,2,3.27,2,6.04v14.04h-4.2v-13.44c0-3.36-1.48-5.04-4.44-5.04-2.19,0-3.7.65-4.54,1.96-.84,1.31-1.26,3.19-1.26,5.64v10.88h-4.24v-21.56h3.36l.6,2.88h.24c.69-1.12,1.65-1.95,2.86-2.48,1.21-.53,2.5-.8,3.86-.8Z"/>
          <path d="M768.93,297.87c0,3.57-.92,6.33-2.76,8.28s-4.32,2.92-7.44,2.92c-1.95,0-3.67-.43-5.18-1.3-1.51-.87-2.69-2.13-3.56-3.8-.87-1.67-1.3-3.7-1.3-6.1,0-3.57.91-6.33,2.72-8.26s4.29-2.9,7.44-2.9c1.97,0,3.71.43,5.22,1.3,1.51.87,2.69,2.13,3.56,3.78s1.3,3.68,1.3,6.08ZM753.05,297.87c0,2.43.46,4.32,1.38,5.68.92,1.36,2.38,2.04,4.38,2.04s3.46-.68,4.38-2.04,1.38-3.25,1.38-5.68-.46-4.34-1.38-5.66-2.39-1.98-4.42-1.98-3.45.66-4.36,1.98c-.91,1.32-1.36,3.21-1.36,5.66Z"/>
          <path d="M778.53,308.67h-4.24v-30.4h4.24v30.4Z"/>
          <path d="M804.17,297.87c0,3.57-.92,6.33-2.76,8.28s-4.32,2.92-7.44,2.92c-1.95,0-3.67-.43-5.18-1.3-1.51-.87-2.69-2.13-3.56-3.8-.87-1.67-1.3-3.7-1.3-6.1,0-3.57.91-6.33,2.72-8.26s4.29-2.9,7.44-2.9c1.97,0,3.71.43,5.22,1.3,1.51.87,2.69,2.13,3.56,3.78s1.3,3.68,1.3,6.08ZM788.29,297.87c0,2.43.46,4.32,1.38,5.68.92,1.36,2.38,2.04,4.38,2.04s3.46-.68,4.38-2.04,1.38-3.25,1.38-5.68-.46-4.34-1.38-5.66-2.39-1.98-4.42-1.98-3.45.66-4.36,1.98c-.91,1.32-1.36,3.21-1.36,5.66Z"/>
          <path d="M816.97,286.71c1.39,0,2.64.27,3.76.8,1.12.53,2.07,1.35,2.84,2.44h.2l.48-2.84h3.44v21.84c0,6.21-3.32,9.32-9.96,9.32-1.55,0-2.97-.11-4.28-.32-1.31-.21-2.51-.55-3.6-1v-3.72c1.12.56,2.37.98,3.74,1.26,1.37.28,2.83.42,4.38.42,1.73,0,3.09-.5,4.06-1.5s1.46-2.41,1.46-4.22v-.72c0-.35.01-.8.04-1.36.03-.56.05-.99.08-1.28h-.16c-.75,1.12-1.66,1.94-2.74,2.46-1.08.52-2.33.78-3.74.78-2.72,0-4.85-.98-6.38-2.94-1.53-1.96-2.3-4.69-2.3-8.18s.77-6.21,2.3-8.22c1.53-2.01,3.66-3.02,6.38-3.02ZM817.85,290.23c-1.68,0-2.97.66-3.86,1.98s-1.34,3.25-1.34,5.78.45,4.41,1.34,5.72,2.21,1.96,3.94,1.96c1.97,0,3.42-.54,4.34-1.62s1.38-2.85,1.38-5.3v-.8c0-2.77-.47-4.75-1.4-5.94-.93-1.19-2.4-1.78-4.4-1.78Z"/>
          <path d="M831.05,287.11h4.56l4.48,12.24c.35.93.65,1.83.92,2.68.27.85.45,1.71.56,2.56h.16c.13-.69.34-1.51.62-2.44s.59-1.88.94-2.84l4.24-12.2h4.56l-9.24,24.48c-.77,2.08-1.81,3.71-3.1,4.9-1.29,1.19-2.98,1.78-5.06,1.78-.67,0-1.24-.03-1.72-.1-.48-.07-.89-.14-1.24-.22v-3.36c.27.05.61.11,1.04.16.43.05.87.08,1.32.08,1.23,0,2.21-.35,2.96-1.06.75-.71,1.33-1.63,1.76-2.78l.88-2.32-8.64-21.56Z"/>
          <path d="M889.73,308.67h-5.24l-14.44-23.08h-.16c.05,1.07.11,2.29.18,3.66.07,1.37.11,2.78.14,4.22v15.2h-3.92v-28.56h5.2l14.4,22.96h.12c-.03-.56-.06-1.27-.1-2.12s-.07-1.77-.1-2.74c-.03-.97-.05-1.89-.08-2.74v-15.36h4v28.56Z"/>
          <path d="M905.33,286.71c2.83,0,5.05.87,6.68,2.62,1.63,1.75,2.44,4.13,2.44,7.14v2.32h-14.48c.05,2.21.63,3.91,1.74,5.08,1.11,1.17,2.66,1.76,4.66,1.76,1.39,0,2.62-.13,3.7-.38,1.08-.25,2.19-.63,3.34-1.14v3.52c-1.09.51-2.19.87-3.28,1.1-1.09.23-2.4.34-3.92.34-2.08,0-3.92-.41-5.52-1.24-1.6-.83-2.85-2.05-3.74-3.68-.89-1.63-1.34-3.65-1.34-6.08s.41-4.48,1.22-6.16c.81-1.68,1.95-2.97,3.4-3.86,1.45-.89,3.15-1.34,5.1-1.34ZM905.33,289.99c-1.52,0-2.74.49-3.66,1.48-.92.99-1.46,2.39-1.62,4.2h10.16c-.03-1.68-.43-3.05-1.22-4.1-.79-1.05-2.01-1.58-3.66-1.58Z"/>
          <path d="M936.57,308.63l-3.08-10.76c-.19-.69-.4-1.49-.64-2.38s-.45-1.75-.64-2.56c-.19-.81-.33-1.45-.44-1.9h-.16c-.08.45-.21,1.09-.4,1.9-.19.81-.39,1.67-.62,2.56-.23.89-.45,1.7-.66,2.42l-3.2,10.72h-4.72l-5.96-21.56h4.32l2.8,10.92c.29,1.12.57,2.31.82,3.58.25,1.27.43,2.29.54,3.06h.16c.08-.45.19-1.06.34-1.82.15-.76.31-1.51.48-2.26.17-.75.34-1.36.5-1.84l3.44-11.64h4.64l3.36,11.64c.16.53.33,1.17.52,1.9.19.73.35,1.46.5,2.18.15.72.25,1.32.3,1.8h.16c.05-.43.15-1.01.28-1.76.13-.75.3-1.55.5-2.4.2-.85.39-1.67.58-2.44l2.88-10.92h4.28l-6.04,21.56h-4.84Z"/>
          <path d="M965.52,302.59c0,2.13-.77,3.75-2.3,4.84-1.53,1.09-3.69,1.64-6.46,1.64-1.52,0-2.82-.11-3.9-.32-1.08-.21-2.07-.55-2.98-1v-3.72c.93.45,2.03.86,3.3,1.22s2.5.54,3.7.54c1.6,0,2.75-.25,3.46-.76.71-.51,1.06-1.19,1.06-2.04,0-.48-.13-.91-.4-1.3-.27-.39-.77-.79-1.5-1.2s-1.81-.89-3.22-1.42c-1.39-.53-2.55-1.08-3.5-1.64-.95-.56-1.67-1.23-2.18-2-.51-.77-.76-1.75-.76-2.92,0-1.87.75-3.3,2.26-4.3s3.5-1.5,5.98-1.5c1.31,0,2.54.13,3.7.4,1.16.27,2.29.64,3.38,1.12l-1.4,3.24c-.93-.4-1.89-.74-2.88-1.02-.99-.28-1.99-.42-3-.42-2.61,0-3.92.76-3.92,2.28,0,.51.15.95.46,1.32.31.37.84.75,1.6,1.12.76.37,1.82.83,3.18,1.36,1.31.51,2.43,1.03,3.38,1.58.95.55,1.67,1.21,2.18,1.98s.76,1.75.76,2.92Z"/>
        </g>
      </g>
      <polygon points="1219.18 71.42 1199.18 71.42 1199.18 20 20 20 20 71.42 0 71.42 0 0 1219.18 0 1219.18 71.42"/>
      <polygon points="1219.18 368.42 0 368.42 0 297 20 297 20 348.42 1199.18 348.42 1199.18 297 1219.18 297 1219.18 368.42"/>
    </g>
  </g>
</svg>